<svg width="34" height="32" viewBox="0 0 34 32" fill="none" xmlns="http://www.w3.org/2000/svg">
<g filter="url(#filter0_d_55_2)">
<path d="M15.18 1.43994H19.05L28.29 22.6799H23.01L21.18 18.1799H12.93L11.16 22.6799H6L15.18 1.43994ZM16.98 7.61994L14.4 14.2199H19.59L16.98 7.61994Z" fill="#01996D"/>
<path d="M15.18 0.939941H14.8514L14.721 1.24157L5.54103 22.4816L5.2392 23.1799H6H11.16H11.5006L11.6253 22.863L13.2706 18.6799H20.8436L22.5468 22.8683L22.6736 23.1799H23.01H28.29H29.0528L28.7485 22.4805L19.5085 1.24048L19.3777 0.939941H19.05H15.18ZM18.8546 13.7199H15.1323L16.9827 8.98638L18.8546 13.7199Z" stroke="black"/>
</g>
<defs>
<filter id="filter0_d_55_2" x="0.478394" y="0.439941" width="33.3372" height="31.24" filterUnits="userSpaceOnUse" color-interpolation-filters="sRGB">
<feFlood flood-opacity="0" result="BackgroundImageFix"/>
<feColorMatrix in="SourceAlpha" type="matrix" values="0 0 0 0 0 0 0 0 0 0 0 0 0 0 0 0 0 0 127 0" result="hardAlpha"/>
<feOffset dy="4"/>
<feGaussianBlur stdDeviation="2"/>
<feComposite in2="hardAlpha" operator="out"/>
<feColorMatrix type="matrix" values="0 0 0 0 0 0 0 0 0 0 0 0 0 0 0 0 0 0 0.25 0"/>
<feBlend mode="normal" in2="BackgroundImageFix" result="effect1_dropShadow_55_2"/>
<feBlend mode="normal" in="SourceGraphic" in2="effect1_dropShadow_55_2" result="shape"/>
</filter>
</defs>
</svg>
