<svg width="27" height="24" viewBox="0 0 27 24" fill="none" xmlns="http://www.w3.org/2000/svg">
<path d="M9.11664 23.4962C4.30957 23.4706 0.333252 14.41 0.333252 9.79564C0.333252 2.25808 6.45714 0.607902 8.81725 0.607902C9.88084 0.607902 11.0165 0.993564 12.0183 1.33484C12.7187 1.5729 13.4432 1.81865 13.8461 1.81865C14.0873 1.81865 14.6556 1.6096 15.1574 1.42617C16.2275 1.03282 17.5591 0.543945 19.1097 0.543945C19.1124 0.543945 19.1162 0.543945 19.1189 0.543945C20.2767 0.543945 23.7874 0.778569 25.898 3.7052L26.3924 4.39119L25.6808 4.88694C24.6644 5.59512 22.8097 6.88695 22.8097 9.44586C22.8097 12.4766 24.9101 13.6421 25.9192 14.2027C26.3647 14.4501 26.8257 14.7053 26.8257 15.2633C26.8257 15.6276 23.6765 23.451 19.1032 23.451C17.9841 23.451 17.1931 23.1404 16.4954 22.8666C15.7894 22.5892 15.1804 22.3504 14.1741 22.3504C13.664 22.3504 13.019 22.573 12.3361 22.8094C11.4029 23.131 10.3466 23.4962 9.14806 23.4962H9.11664Z" fill="white"/>
</svg>
